<?xml version="1.0" encoding="UTF-8" standalone="no"?>
<svg
   width="3112.974"
   height="664.238"
   viewBox="0 0 3112.974 664.238"
   version="1.1"
   id="svg1"
   sodipodi:docname="Logo Kororo.svg"
   inkscape:version="1.3 (0e150ed, 2023-07-21)"
   xmlns:inkscape="http://www.inkscape.org/namespaces/inkscape"
   xmlns:sodipodi="http://sodipodi.sourceforge.net/DTD/sodipodi-0.dtd"
   xmlns="http://www.w3.org/2000/svg"
   xmlns:svg="http://www.w3.org/2000/svg">
  <defs
     id="defs1" />
  <sodipodi:namedview
     id="namedview1"
     pagecolor="#ffffff"
     bordercolor="#000000"
     borderopacity="0.25"
     inkscape:showpageshadow="2"
     inkscape:pageopacity="0.0"
     inkscape:pagecheckerboard="0"
     inkscape:deskcolor="#d1d1d1"
     inkscape:zoom="0.4401257"
     inkscape:cx="564.61143"
     inkscape:cy="368.07666"
     inkscape:window-width="1920"
     inkscape:window-height="1027"
     inkscape:window-x="0"
     inkscape:window-y="25"
     inkscape:window-maximized="1"
     inkscape:current-layer="svg1" />
  <rect
     style="fill:#ffffff;stroke-width:0.228334"
     id="rect1"
     width="1128"
     height="191"
     x="278.93503"
     y="-286.18317"
     inkscape:export-filename="Logo_Kororo_banner3.png"
     inkscape:export-xdpi="96"
     inkscape:export-ydpi="96" />
  <g
     id="Logo_Kororo"
     data-name="Logo Kororo"
     transform="matrix(0.25060251,0,0,0.25060251,4888.8456,2900.465)"
     inkscape:export-filename="Logo_Kororo_banner2.png"
     inkscape:export-xdpi="24.670961"
     inkscape:export-ydpi="24.670961">
    <g
       id="Kokoro_Logo"
       data-name="Kokoro Logo"
       transform="translate(-16774.336,-12563.144)">
      <path
         id="Uni贸n_7"
         data-name="Uni贸n 7"
         d="M 976.89,439.792 902.982,346.753 837.9,428.947 A 57.853,57.853 0 0 1 788.816,456.635 57.008,57.008 0 0 1 731.74,399.549 V 57.076 a 55.031,55.031 0 0 1 16.692,-40.384 57.2,57.2 0 0 1 80.768,0 55.034,55.034 0 0 1 16.7,40.384 V 237.447 L 976.89,73.636 q 16.555,-16.555 40.242,-16.56 a 54.988,54.988 0 0 1 40.385,16.7 54.988,54.988 0 0 1 16.7,40.384 q 0,23.687 -16.561,40.232 l -83.619,102.468 83.621,102.163 a 55.729,55.729 0 0 1 16.561,40.526 57.023,57.023 0 0 1 -57.086,57.086 54.312,54.312 0 0 1 -40.243,-16.843 z m -731.734,0 a 49.515,49.515 0 0 1 -7.132,-8.275 L 114.16,317.649 v 81.9 a 55.013,55.013 0 0 1 -16.691,40.384 55,55 0 0 1 -40.384,16.7 54.987,54.987 0 0 1 -40.384,-16.7 A 55.027,55.027 0 0 1 0,399.549 V 57.076 A 55.044,55.044 0 0 1 16.7,16.692 55.017,55.017 0 0 1 57.085,0 55.029,55.029 0 0 1 97.469,16.692 55.03,55.03 0 0 1 114.16,57.076 v 81.911 L 238.024,25.119 a 60.9,60.9 0 0 1 7.132,-8.568 Q 261.709,-0.005 285.4,0 a 55.013,55.013 0 0 1 40.384,16.692 55.039,55.039 0 0 1 16.7,40.384 q 0,23.687 -16.559,40.242 a 58.578,58.578 0 0 1 -12.554,9.7 L 181.8,228.313 313.37,349.606 a 64.108,64.108 0 0 1 12.554,9.418 55.733,55.733 0 0 1 16.559,40.526 57.023,57.023 0 0 1 -57.083,57.085 54.308,54.308 0 0 1 -40.244,-16.843 z m 1599.886,-42.539 q -58.512,-58.512 -58.5,-141.273 0,-82.776 58.5,-141.273 58.513,-58.507 141.274,-58.507 82.761,0 141.273,58.512 58.5,58.5 58.5,141.273 0,82.761 -58.5,141.273 -58.512,58.5 -141.273,58.5 -82.761,0 -141.274,-58.505 z m 80.768,-201.778 q -25.112,25.113 -25.118,60.5 -0.01,35.387 25.118,60.505 25.114,25.113 60.506,25.108 35.392,-0.005 60.5,-25.108 25.113,-25.114 25.109,-60.505 0,-35.391 -25.109,-60.5 -25.113,-25.113 -60.5,-25.118 -35.387,-0.005 -60.506,25.118 z m -445.639,243.588 a 55.029,55.029 0 0 1 -16.691,-40.384 v -285.4 a 55.013,55.013 0 0 1 16.691,-40.379 57.18,57.18 0 0 1 80.343,-0.425 q 33.671,-16.282 74.2,-16.277 71.059,0 121.292,49.954 a 192.678,192.678 0 0 1 22.257,27.111 q 13.412,15.69 13.413,37.1 a 57.006,57.006 0 0 1 -57.075,57.086 54.307,54.307 0 0 1 -40.242,-16.843 l -19.121,-23.692 a 55.765,55.765 0 0 0 -40.525,-16.55 57.023,57.023 0 0 0 -57.087,57.086 v 171.229 a 57.112,57.112 0 0 1 -97.46,40.384 z m -375.077,-41.81 q -58.5,-58.512 -58.5,-141.273 0,-82.776 58.5,-141.273 Q 1163.6,56.2 1246.366,56.2 q 82.766,0 141.273,58.512 58.5,58.5 58.5,141.273 0,82.761 -58.5,141.273 -58.511,58.5 -141.273,58.5 -82.762,0 -141.272,-58.505 z m 80.766,-201.778 q -25.112,25.113 -25.117,60.5 0,35.387 25.117,60.505 25.114,25.113 60.505,25.108 35.391,-0.005 60.505,-25.108 25.114,-25.114 25.117,-60.505 0,-35.391 -25.117,-60.5 -25.112,-25.113 -60.505,-25.118 -35.393,-0.005 -60.505,25.118 z m -812.5,201.778 q -58.511,-58.512 -58.5,-141.273 0,-82.776 58.5,-141.273 Q 431.871,56.2 514.63,56.2 q 82.759,0 141.27,58.508 58.5,58.5 58.5,141.273 0,82.761 -58.5,141.273 -58.512,58.5 -141.274,58.5 -82.762,0 -141.268,-58.501 z m 80.768,-201.778 q -25.112,25.113 -25.119,60.5 -0.007,35.387 25.119,60.505 25.114,25.113 60.5,25.108 35.386,-0.005 60.505,-25.108 25.114,-25.114 25.108,-60.505 -0.006,-35.391 -25.108,-60.5 -25.112,-25.113 -60.505,-25.118 -35.393,-0.005 -60.502,25.118 z"
         fill="#86b4bb" />
    </g>
    <path
       id="Uni贸n_30"
       data-name="Uni贸n 30"
       d="m 363.344,664.141 c -0.375,-0.047 -0.781,-0.078 -1.172,-0.094 h -0.047 c -4.25,-0.281 -8.781,-0.25 -13.359,-0.141 -7.375,0.063 -14.7,0.156 -20.891,-1.187 a 1.418,1.418 0 0 1 -0.25,-0.062 1.881,1.881 0 0 1 -0.469,-0.109 c -0.141,-0.031 -0.328,-0.078 -0.516,-0.125 -0.047,-0.016 -0.125,-0.016 -0.141,-0.031 a 22.335,22.335 0 0 1 -8.031,-3.719 C 214.234,576.938 115.781,488.75 47.359,373.328 17.906,323.609 -0.187,272.844 0,221.922 0.125,179.7 12.875,137.391 42.047,95.484 120.734,-17.391 277.188,-31.984 379.172,61.266 c 6.734,6.141 13.625,12.125 22.422,19.969 43.109,-44 92.063,-73.016 153.578,-79.406 133.187,-13.938 248.156,92.28 247.344,218.546 a 209.105,209.105 0 0 1 -5.922,48.047 c -11.453,48.016 -31.594,99 -62.719,136.3 -67.906,81.391 -144.547,155.7 -219.859,230.688 a 30.361,30.361 0 0 1 -4.7,3.609 c -0.047,0.016 -0.062,0.047 -0.109,0.047 -12.094,7.391 -33.344,9.938 -45.531,5.344 C 396.2,618.672 340.594,575.5 299.094,516.063 c -10.891,-15.594 -15.578,-31.766 -15.5,-47.891 0.094,-17.156 5.625,-34.3 14.938,-50.5 16.359,-28.7 35.859,-56.359 58.078,-80.734 36.313,-39.8 63.719,-82.344 84.188,-133.437 7.359,-18.516 19.328,-35.2 32.547,-50.812 2.984,-7.078 4.859,-11.125 4.859,-11.125 1.25,-3.734 19.938,-53.641 51.172,-57.391 l 12.516,39.469 c 4.875,5.516 9.594,10.859 14.234,16.016 8.734,3.719 20.156,8.922 23.141,11.906 4.969,4.984 27.422,48.672 39.938,56.141 12.469,7.484 11.2,32.438 1.266,43.672 -3.719,13.859 -14.266,24.984 -33.156,31.359 a 88.335,88.335 0 0 1 -12.75,9.828 c -6.2,3.953 -12,18.047 -11.875,26.578 a 9.554,9.554 0 0 0 1.094,4.766 c 13.781,22.109 19.094,43.719 19.031,65.125 -0.078,29.344 -10.25,58.266 -22.437,87.5 a 63.408,63.408 0 0 0 -4.437,24.594 117.291,117.291 0 0 0 1.688,18.922 c 21.422,-19.656 42.906,-39.328 63.375,-59.641 60.563,-60.344 112.109,-126.594 127.125,-216.3 0.141,-0.922 0.328,-1.859 0.469,-2.812 a 149.321,149.321 0 0 0 1.813,-23.437 C 750.317,149.343 702.599,87.659 635.364,63.281 A 169.9,169.9 0 0 0 577.38,53.047 c -52.578,0 -103.562,24.563 -137.656,68.859 -1.109,1.406 -2.172,2.891 -3.266,4.359 -31.25,43.313 -38.75,43.188 -70.734,-0.844 C 331.818,78.64 279.115,53.062 225.083,53.062 A 171.954,171.954 0 0 0 148.052,71.343 C 72.281,109.25 35.281,195.484 61.5,277.547 c 31.172,97.359 100.2,168.563 171.141,237.469 37.2,36.125 79.656,66.969 116.828,103.141 10.266,9.953 10.266,30.453 15.063,46.078 -0.423,-0.035 -0.782,-0.079 -1.188,-0.094 z M 238.531,390.8 c -4.953,-32.2 -3.766,-67.125 -16.594,-95.812 -10.016,-22.328 -35.937,-49.609 -57.5,-52.25 -48.312,-5.922 -71.625,-28.8 -82,-75.984 7.141,-3.312 14.891,-7.016 22.734,-10.484 33.438,-14.594 68.641,-26.031 99.875,-44.328 50.22,-29.442 101.11,-13.083 127.938,44.089 10.609,22.484 20.266,47.844 37.547,64.375 11.906,16.3 12.063,24.813 -14.156,52.375 C 309.219,322.547 242.938,371.734 251.3,473.563 Q 244.9,432.2 238.531,390.8 Z"
       transform="translate(-17701.217,-12666.981)"
       fill="#c16e81" />
  </g>
</svg>
